<svg id="Layer_1" data-name="Layer 1" xmlns="http://www.w3.org/2000/svg" viewBox="0 0 302.73 91.43"><defs><style>.cls-1{fill:#004995;}.cls-2{fill:#919dca;}.cls-3{fill:#fff;}</style></defs><title>Artboard 1</title><ellipse class="cls-1" cx="111.93" cy="45.71" rx="62.98" ry="45.71"/><path class="cls-2" d="M7,66.79a45.37,45.37,0,0,0,4.06,4.89H114.74a45.37,45.37,0,0,0,4.06-4.89Z"/><path class="cls-2" d="M0,48.25a33.88,33.88,0,0,0,1.1,6.35H124.7a34.72,34.72,0,0,0,1.1-6.35Z"/><path class="cls-2" d="M13,73.59A54.46,54.46,0,0,0,18.37,78h89.09a54.46,54.46,0,0,0,5.36-4.44Z"/><path class="cls-2" d="M2.11,57.65A37.85,37.85,0,0,0,5,63.75H120.8a37.79,37.79,0,0,0,2.91-6.1Z"/><path class="cls-2" d="M82.58,2.29a85.58,85.58,0,0,0-39.33,0Z"/><path class="cls-2" d="M21.17,79.94a65,65,0,0,0,6,3.42H98.63a66.16,66.16,0,0,0,6-3.42Z"/><path class="cls-2" d="M87.3,87.87a72.34,72.34,0,0,0,7.17-2.6H31.35a73.47,73.47,0,0,0,7.18,2.6Z"/><path class="cls-2" d="M37.74,3.81q-3.3,1-6.38,2.35H94.47c-2.06-.87-4.18-1.65-6.38-2.35Z"/><path class="cls-2" d="M27.2,8.06a64.79,64.79,0,0,0-6.43,3.69h84.29a63.84,63.84,0,0,0-6.44-3.69Z"/><path class="cls-2" d="M18,13.65a54.92,54.92,0,0,0-5.3,4.45H113.1a53.87,53.87,0,0,0-5.31-4.45Z"/><path class="cls-2" d="M1.07,37.08A33.91,33.91,0,0,0,0,43.68H125.83a33.91,33.91,0,0,0-1.07-6.6Z"/><path class="cls-2" d="M44.3,89.4a85,85,0,0,0,18.61,2,85.21,85.21,0,0,0,18.62-2Z"/><path class="cls-2" d="M5,27.68A38.76,38.76,0,0,0,2,34h121.8a37.9,37.9,0,0,0-3-6.35Z"/><path class="cls-2" d="M10.84,20A44.55,44.55,0,0,0,7,24.63H118.8A45.86,45.86,0,0,0,115,20Z"/><path class="cls-3" d="M75.67,37.7a5.1,5.1,0,0,1,1.75,3.48,3,3,0,0,1-3.06,3.21,2.89,2.89,0,0,1-2-.75,2.43,2.43,0,0,1-.81-1.86A3.8,3.8,0,0,1,72.07,40a3.84,3.84,0,0,0,.54-1.27,1.18,1.18,0,0,0-.67-1,4.17,4.17,0,0,0-2.13-.41q-5.25,0-9.1,6a22.65,22.65,0,0,0-3.86,12.52,9.44,9.44,0,0,0,1.56,5.77,5.48,5.48,0,0,0,4.69,2.09A9.18,9.18,0,0,0,68,62.18a19.27,19.27,0,0,0,4.34-3.7l.23-.26.94.72a23.54,23.54,0,0,1-4.39,4.46,13.87,13.87,0,0,1-8.3,2.7,9.39,9.39,0,0,1-7.07-2.78,10.46,10.46,0,0,1-2.7-7.6q0-7.39,6-13.61t12.9-6.19C72.58,35.92,74.49,36.52,75.67,37.7Z"/><path class="cls-3" d="M105.83,38.7a11,11,0,0,1,2.25,6.89q0,6.9-6.09,13.55Q95.71,66,88.57,66a9.91,9.91,0,0,1-7.19-2.61,9.7,9.7,0,0,1-2.71-7.32q0-7.14,6.06-13.64,6.18-6.67,13.38-6.68Q103.59,35.79,105.83,38.7ZM85.66,62.8a4.67,4.67,0,0,0,4,1.77q5.31,0,9.41-8a28.16,28.16,0,0,0,3.49-12.63,11,11,0,0,0-.59-3.94,4.15,4.15,0,0,0-4.17-2.83q-5,0-9.34,7.45a26.89,26.89,0,0,0-4.1,13.71A7.19,7.19,0,0,0,85.66,62.8Z"/><path class="cls-3" d="M133.14,37a5.41,5.41,0,0,1,1,2.44L138,26.12a5.52,5.52,0,0,0,.21-1,5.68,5.68,0,0,0,.05-.77c0-.84-.15-1.38-.47-1.59a2.32,2.32,0,0,0-1.35-.33c-.37,0-.71,0-1,0l-1.25.1V21.5c2.46-.33,5.88-.89,10.24-1.7l.3.33-.07.36-6.43,23.4-4.37,15.48c-.09.35-.16.67-.21,1a3.94,3.94,0,0,0-.08.8c0,.59.14,1,.43,1.15a1.52,1.52,0,0,0,.77.26c.64,0,1.54-.55,2.7-1.67.68-.67,1.62-1.72,2.8-3.14l.75.72-.46.68a24.25,24.25,0,0,1-3.11,3.66q-3.37,3.3-6.06,3.3a3.31,3.31,0,0,1-1.61-.39,3,3,0,0,1-1.34-2.8,18.82,18.82,0,0,1,.19-2.18c.13-1,.33-2.09.6-3.28a26.93,26.93,0,0,1-5.43,6.18A9.92,9.92,0,0,1,117.29,66a7,7,0,0,1-5-2c-1.42-1.34-2.12-3.41-2.12-6.21q0-7.1,6.55-14.57t12.71-7.45A4.63,4.63,0,0,1,133.14,37ZM116.93,61.21A3.34,3.34,0,0,0,120,62.68q4.67,0,9-7.48,4.14-7,4.14-13.29a7.25,7.25,0,0,0-.65-3.29,2.68,2.68,0,0,0-2.66-1.3q-5,0-9.63,8Q116,52.48,116,57.74A6.49,6.49,0,0,0,116.93,61.21Z"/><path class="cls-1" d="M196.56,42.2a2.8,2.8,0,0,1,1.07,2.46,9,9,0,0,1-.36,2.13q-.37,1.37-1.32,4.41a48.16,48.16,0,0,1,4.24-5.86c2.14-2.43,4-3.64,5.68-3.64a2.92,2.92,0,0,1,1.91.72,2.86,2.86,0,0,1,.87,2.33,16.11,16.11,0,0,1-.42,2.41l-3.49,12.35a.75.75,0,0,0,.07.6.57.57,0,0,0,.58.31,1.24,1.24,0,0,0,.69-.2,6.32,6.32,0,0,0,.77-.68c.29-.31.53-.57.72-.8l1.58-2,.68.54-.22.32a18.51,18.51,0,0,1-3.21,3.68,4.92,4.92,0,0,1-3.19,1.37,1.93,1.93,0,0,1-1.19-.36,2.36,2.36,0,0,1-.76-2,4.66,4.66,0,0,1,.06-.72,8.66,8.66,0,0,1,.17-.86l3.43-12.7a4.31,4.31,0,0,0,.1-.45,1.47,1.47,0,0,0,0-.36,1.2,1.2,0,0,0-.28-.84.94.94,0,0,0-.71-.3c-1,0-2.19.77-3.53,2.29a37.22,37.22,0,0,0-3.5,4.65,24.84,24.84,0,0,0-1.92,4q-.56,1.62-2,7.11h-3.44l4.43-16.12c0-.13.06-.27.08-.39a2.6,2.6,0,0,0,0-.4,1.41,1.41,0,0,0-.23-.85.94.94,0,0,0-.78-.31c-1,0-2.13.8-3.53,2.38A39.19,39.19,0,0,0,186.23,51a26.17,26.17,0,0,0-2.51,5.37c-.47,1.36-1.09,3.31-1.86,5.87h-3.4l4.26-16.1a4.21,4.21,0,0,0,.12-.48,3.58,3.58,0,0,0,0-.48c0-.59-.2-1-.6-1.07a8.45,8.45,0,0,0-2.3-.12V43.2c1.48-.25,3.89-.74,7.21-1.5l.17.16-2.51,9.27A56,56,0,0,1,189.57,45q3.06-3.28,5.4-3.28A2.66,2.66,0,0,1,196.56,42.2Z"/><path class="cls-1" d="M230.33,43.68a7.73,7.73,0,0,1,1.53,4.79q0,4.8-4.14,9.42-4.28,4.8-9.12,4.79a6.64,6.64,0,0,1-4.89-1.81,6.79,6.79,0,0,1-1.84-5.09c0-3.3,1.37-6.47,4.12-9.48s5.83-4.64,9.09-4.64Q228.8,41.66,230.33,43.68ZM216.62,60.43a3.15,3.15,0,0,0,2.69,1.24q3.6,0,6.39-5.57a20,20,0,0,0,2.37-8.78,7.92,7.92,0,0,0-.39-2.74,2.83,2.83,0,0,0-2.84-2c-2.26,0-4.37,1.73-6.35,5.18a19,19,0,0,0-2.79,9.53A5.08,5.08,0,0,0,216.62,60.43Z"/><path class="cls-1" d="M235.05,60.28a4.21,4.21,0,0,1,.09-.49L239.42,44h-3.36a2,2,0,0,1,.09-.77.87.87,0,0,1,.44-.32A18.93,18.93,0,0,0,240.08,41a23,23,0,0,0,3.37-3.5l.35-.44a.58.58,0,0,1,.17-.14.42.42,0,0,1,.21-.06,1.33,1.33,0,0,1,.31.09,1.36,1.36,0,0,1,.08.28,2.26,2.26,0,0,1,0,.26l-1.31,4.94h3.65L246.64,44h-3.82L238.74,59.2a1.05,1.05,0,0,0,.07.78.59.59,0,0,0,.59.37q.58,0,1.62-1.17c.4-.43,1.07-1.26,2-2.52l.57.34-.31.48a17.21,17.21,0,0,1-3.36,4.06,4.56,4.56,0,0,1-2.76,1.14,2,2,0,0,1-1.64-.61,2.07,2.07,0,0,1-.51-1.38C235,60.57,235,60.43,235.05,60.28Z"/><path class="cls-1" d="M256.22,41.67a.18.18,0,0,1,.1.19L251.85,58a10.43,10.43,0,0,0-.31,1.54,1.22,1.22,0,0,0,.13.59c.07.18.26.27.55.27.5,0,1.17-.44,2-1.33A28,28,0,0,0,256,56.82l.57.5-.22.32a23.84,23.84,0,0,1-2.74,3.41,4.94,4.94,0,0,1-3.32,1.63,1.92,1.92,0,0,1-1.58-.81,3,3,0,0,1-.64-1.92,6.47,6.47,0,0,1,.09-1.15c.06-.32.17-.8.33-1.43l3.16-11.64c0-.18.08-.35.11-.5a2.28,2.28,0,0,0,0-.45c0-.54-.19-.88-.59-1a8.83,8.83,0,0,0-2.31-.19v-.75c1.22-.15,2.09-.26,2.63-.35l1.61-.26c.71-.12,1.37-.25,2-.41A2.61,2.61,0,0,1,256.22,41.67ZM254.13,36a2.69,2.69,0,0,1,0-3.51,2,2,0,0,1,1.55-.73,2.06,2.06,0,0,1,1.56.73,2.71,2.71,0,0,1,0,3.52,2.07,2.07,0,0,1-1.56.71A2,2,0,0,1,254.13,36Z"/><path class="cls-1" d="M278.19,43.68a7.78,7.78,0,0,1,1.52,4.79q0,4.8-4.14,9.42-4.26,4.8-9.12,4.79a6.67,6.67,0,0,1-4.89-1.81,6.82,6.82,0,0,1-1.83-5.09c0-3.3,1.37-6.47,4.11-9.48s5.84-4.64,9.1-4.64Q276.66,41.66,278.19,43.68ZM264.47,60.43a3.17,3.17,0,0,0,2.69,1.24q3.61,0,6.4-5.57a20,20,0,0,0,2.37-8.78,7.67,7.67,0,0,0-.4-2.74,2.82,2.82,0,0,0-2.83-2q-3.39,0-6.36,5.18a19,19,0,0,0-2.78,9.53A5.07,5.07,0,0,0,264.47,60.43Z"/><path class="cls-1" d="M282,62.19l3.78-14c.33-1.19.52-1.9.57-2.15a4.12,4.12,0,0,0,.08-.81,1.42,1.42,0,0,0-.37-1,2,2,0,0,0-1.43-.37,4.53,4.53,0,0,0-.52,0l-.56.08V43.2l2-.34,1.31-.28,3.94-.88a.48.48,0,0,1,.17.21l-2.93,9.73a52.94,52.94,0,0,1,4.55-6.29q3.19-3.65,5.75-3.65a3.49,3.49,0,0,1,1.69.39,2.8,2.8,0,0,1,1.36,2.69,6.44,6.44,0,0,1-.11,1.13c-.08.39-.18.82-.29,1.27L298.12,58c-.05.23-.12.5-.19.83a3.28,3.28,0,0,0-.12.69,1.26,1.26,0,0,0,.16.61.52.52,0,0,0,.49.27,2,2,0,0,0,1.28-.69,25.28,25.28,0,0,0,2.35-2.95l.64.59a27.17,27.17,0,0,1-2.82,3.53,5,5,0,0,1-3.4,1.78,2.41,2.41,0,0,1-1.43-.5,2.17,2.17,0,0,1-.68-1.85,5.68,5.68,0,0,1,.05-.81,5.5,5.5,0,0,1,.15-.75l2.82-11a14.32,14.32,0,0,0,.3-1.48,7.76,7.76,0,0,0,.08-.83,1.7,1.7,0,0,0-.26-.94,1,1,0,0,0-.9-.4q-1.69,0-4.24,3.08a38.47,38.47,0,0,0-3,4.36,22.11,22.11,0,0,0-1.82,3.84q-.66,1.86-2.12,6.79Z"/><path class="cls-3" d="M172.87,57.31,170.12,60l-.82.77-.62.54-.58.45a7.08,7.08,0,0,1-.87.59,1.39,1.39,0,0,1-.65.19.92.92,0,0,1-.61-.21.83.83,0,0,1-.24-.66A48.26,48.26,0,0,1,166.94,56q.74-2.78,1.78-6.58l3.22-11.65c.1-.3.17-.53.21-.7l.21-.66a.73.73,0,0,0,0-.41c0-.08-.15-.11-.35-.11l-3.75.41a.72.72,0,0,0-.47.18,3,3,0,0,0-.23.57l-.73,2.45-.16-.45a4.72,4.72,0,0,0-1.19-1.89,5.61,5.61,0,0,0-4-1.34q-6.86,0-13.24,7.72-6.18,7.44-6.18,14.28a8.38,8.38,0,0,0,2.14,6.15A6.61,6.61,0,0,0,149,66.1a9.88,9.88,0,0,0,3.25-.58,16.21,16.21,0,0,0,4.56-3,22.83,22.83,0,0,0,3.39-3.64c.92-1.24,1.58-2.19,2-2.85-.28,1-.57,2.23-.86,3.69a17.89,17.89,0,0,0-.44,3.36,3.25,3.25,0,0,0,.67,2.11,2.25,2.25,0,0,0,1.9.85,6.92,6.92,0,0,0,4-1.55,28.14,28.14,0,0,0,4.23-4.24C172.18,59.13,172.58,58.1,172.87,57.31Zm-11.72-2.48q-4.54,7.92-9.45,7.92a3.66,3.66,0,0,1-2.78-1.19,5.39,5.39,0,0,1-1.12-3.8q0-5.17,4-12.35,4.62-8.16,10-8.15a3.6,3.6,0,0,1,2.64,1.1,4.8,4.8,0,0,1,1.08,3.46Q165.53,47.63,161.15,54.83Z"/></svg>