<?xml version="1.0" encoding="utf-8"?>
<!-- Generator: Adobe Illustrator 18.1.1, SVG Export Plug-In . SVG Version: 6.00 Build 0)  -->
<svg version="1.1" id="Layer_1" xmlns="http://www.w3.org/2000/svg" xmlns:xlink="http://www.w3.org/1999/xlink" x="0px" y="0px"
	 viewBox="0 0 500 152.4" enable-background="new 0 0 500 152.4" xml:space="preserve">
<g>
	<g>
		<path fill="#FFFFFF" d="M319.3,70.1c1.2,0.8,1.8,2.2,1.8,4.2c0,0.9-0.2,2.1-0.6,3.6c-0.4,1.5-1.2,4-2.2,7.5
			c2.8-4.3,5.2-7.6,7.2-9.9c3.6-4.1,6.8-6.2,9.6-6.2c1.2,0,2.3,0.4,3.2,1.2c1,0.8,1.5,2.1,1.5,3.9c0,0.6-0.2,1.9-0.7,4.1l-5.9,20.9
			c-0.1,0.3-0.1,0.7,0.1,1c0.2,0.3,0.5,0.5,1,0.5c0.4,0,0.8-0.1,1.2-0.3s0.8-0.6,1.3-1.2c0.5-0.5,0.9-1,1.2-1.3
			c0.3-0.4,1.2-1.5,2.7-3.3l1.2,0.9l-0.4,0.5c-1.8,2.6-3.6,4.7-5.4,6.2c-1.8,1.5-3.6,2.3-5.4,2.3c-0.8,0-1.5-0.2-2-0.6
			c-0.8-0.7-1.3-1.8-1.3-3.3c0-0.4,0-0.8,0.1-1.2c0.1-0.4,0.2-0.9,0.3-1.5l5.8-21.5c0.1-0.3,0.1-0.6,0.2-0.8c0-0.2,0.1-0.4,0.1-0.6
			c0-0.6-0.2-1.1-0.5-1.4c-0.3-0.3-0.7-0.5-1.2-0.5c-1.7,0-3.7,1.3-6,3.9c-2.3,2.6-4.2,5.2-5.9,7.9c-1.5,2.7-2.6,5-3.2,6.8
			c-0.6,1.8-1.8,5.8-3.4,12h-5.8l7.5-27.3c0.1-0.2,0.1-0.5,0.1-0.7c0-0.2,0.1-0.4,0.1-0.7c0-0.6-0.1-1.1-0.4-1.4
			c-0.3-0.3-0.7-0.5-1.3-0.5c-1.6,0-3.6,1.3-6,4c-2.4,2.7-4.3,5.2-5.8,7.5c-1.5,2.3-2.9,5.3-4.3,9.1c-0.8,2.3-1.8,5.6-3.2,9.9h-5.8
			l7.2-27.2c0.1-0.3,0.1-0.6,0.2-0.8c0-0.3,0.1-0.5,0.1-0.8c0-1-0.3-1.6-1-1.8c-0.7-0.2-2-0.3-3.9-0.2v-1.3
			c2.5-0.4,6.6-1.3,12.2-2.5l0.3,0.3l-4.2,15.7c2.8-4.2,5.5-7.6,8-10.4c3.4-3.7,6.5-5.5,9.1-5.5C317.6,69.3,318.5,69.5,319.3,70.1z"
			/>
		<path fill="#FFFFFF" d="M376.5,72.6c1.7,2.3,2.6,5,2.6,8.1c0,5.4-2.3,10.7-7,15.9c-4.8,5.4-10,8.1-15.4,8.1c-3.4,0-6.2-1-8.3-3.1
			c-2.1-2-3.1-4.9-3.1-8.6c0-5.6,2.3-10.9,7-16.1c4.7-5.2,9.9-7.9,15.4-7.9C371.8,69.2,374.7,70.3,376.5,72.6z M353.3,101
			c1,1.4,2.6,2.1,4.6,2.1c4.1,0,7.7-3.1,10.8-9.4c2.7-5.4,4-10.3,4-14.9c0-1.9-0.2-3.5-0.7-4.6c-0.9-2.2-2.5-3.3-4.8-3.3
			c-3.8,0-7.4,2.9-10.8,8.8c-3.1,5.5-4.7,10.8-4.7,16.1C351.7,97.8,352.2,99.6,353.3,101z"/>
		<path fill="#FFFFFF" d="M384.5,100.7c0-0.3,0.1-0.5,0.2-0.8l7.2-26.7h-5.7c0-0.7,0.1-1.1,0.2-1.3c0.1-0.2,0.4-0.4,0.8-0.5
			c2.5-1.1,4.5-2.2,5.9-3.2c1.4-1,3.3-3,5.7-5.9l0.6-0.7c0.1-0.1,0.2-0.2,0.3-0.2c0.1-0.1,0.2-0.1,0.4-0.1c0.2,0.1,0.4,0.1,0.5,0.2
			c0.1,0.2,0.1,0.3,0.1,0.5c0,0.1,0,0.3,0,0.4l-2.2,8.4h6.2l-0.5,2.6h-6.5l-6.9,25.7c-0.1,0.5-0.1,0.9,0.1,1.3
			c0.2,0.4,0.5,0.6,1,0.6c0.6,0,1.6-0.7,2.7-2c0.7-0.7,1.8-2.1,3.4-4.3l1,0.6l-0.5,0.8c-2.2,3.3-4,5.6-5.7,6.9
			c-1.6,1.3-3.2,1.9-4.7,1.9c-1.3,0-2.2-0.3-2.8-1c-0.6-0.7-0.9-1.5-0.9-2.3C384.4,101.2,384.4,101,384.5,100.7z"/>
		<path fill="#FFFFFF" d="M420.3,69.2c0.1,0.1,0.2,0.2,0.2,0.3l-7.6,27.4c-0.4,1.5-0.5,2.3-0.5,2.6c0,0.4,0.1,0.7,0.2,1
			c0.1,0.3,0.4,0.5,0.9,0.5c0.8,0,2-0.8,3.4-2.3c0.8-0.9,1.8-2.2,3-3.8l1,0.8l-0.4,0.5c-1.9,2.7-3.4,4.6-4.6,5.8
			c-1.9,1.8-3.8,2.8-5.6,2.8c-1.1,0-2-0.5-2.7-1.4c-0.7-0.9-1.1-2-1.1-3.3c0-0.7,0-1.4,0.1-1.9c0.1-0.5,0.3-1.4,0.6-2.4l5.3-19.7
			c0.1-0.3,0.1-0.6,0.2-0.8c0.1-0.3,0.1-0.5,0.1-0.8c0-0.9-0.3-1.5-1-1.7c-0.7-0.2-2-0.3-3.9-0.3v-1.3c2.1-0.3,3.5-0.5,4.4-0.6
			c0.9-0.1,1.8-0.3,2.7-0.4c1.2-0.2,2.3-0.4,3.4-0.7C419.5,69.2,420.1,69.1,420.3,69.2z M416.7,59.6c-0.7-0.8-1.1-1.8-1.1-2.9
			c0-1.2,0.4-2.2,1.1-3c0.7-0.8,1.6-1.2,2.6-1.2c1,0,1.9,0.4,2.6,1.2c0.7,0.8,1.1,1.8,1.1,3c0,1.2-0.4,2.2-1.1,3
			c-0.7,0.8-1.6,1.2-2.6,1.2C418.3,60.8,417.5,60.4,416.7,59.6z"/>
		<path fill="#FFFFFF" d="M457.5,72.6c1.7,2.3,2.6,5,2.6,8.1c0,5.4-2.3,10.7-7,15.9c-4.8,5.4-10,8.1-15.4,8.1c-3.4,0-6.2-1-8.3-3.1
			c-2.1-2-3.1-4.9-3.1-8.6c0-5.6,2.3-10.9,7-16.1c4.7-5.2,9.9-7.9,15.4-7.9C452.8,69.2,455.7,70.3,457.5,72.6z M434.3,101
			c1,1.4,2.6,2.1,4.6,2.1c4.1,0,7.7-3.1,10.8-9.4c2.7-5.4,4-10.3,4-14.9c0-1.9-0.2-3.5-0.7-4.6c-0.9-2.2-2.5-3.3-4.8-3.3
			c-3.8,0-7.4,2.9-10.8,8.8c-3.1,5.5-4.7,10.8-4.7,16.1C432.7,97.8,433.2,99.6,434.3,101z"/>
		<path fill="#FFFFFF" d="M463.9,103.9l6.4-23.7c0.5-2,0.9-3.2,1-3.6c0.1-0.4,0.1-0.9,0.1-1.4c0-0.7-0.2-1.3-0.6-1.8
			c-0.4-0.4-1.2-0.6-2.4-0.6c-0.3,0-0.6,0-0.9,0.1c-0.3,0-0.6,0.1-1,0.1v-1.3c1.6-0.3,2.8-0.4,3.4-0.6c0.7-0.1,1.4-0.3,2.2-0.5
			l6.7-1.5c0.1,0.1,0.2,0.2,0.3,0.3l-5,16.5c3.1-4.8,5.6-8.3,7.7-10.7c3.6-4.1,6.9-6.2,9.7-6.2c1.1,0,2.1,0.2,2.9,0.7
			c1.5,0.8,2.3,2.4,2.3,4.6c0,0.6-0.1,1.3-0.2,1.9c-0.1,0.7-0.3,1.4-0.5,2.1l-4.9,18.4c-0.1,0.4-0.2,0.9-0.3,1.4
			c-0.1,0.5-0.2,0.9-0.2,1.2c0,0.4,0.1,0.7,0.3,1c0.2,0.3,0.5,0.5,0.8,0.5c0.6,0,1.3-0.4,2.2-1.2c0.8-0.8,2.1-2.4,4-5l1.1,1
			c-2,2.8-3.6,4.8-4.8,6c-2,2-3.9,3-5.8,3c-0.8,0-1.6-0.3-2.4-0.9c-0.8-0.6-1.2-1.6-1.2-3.1c0-0.4,0-0.9,0.1-1.4
			c0.1-0.5,0.1-0.9,0.2-1.3l4.8-18.6c0.2-1,0.4-1.9,0.5-2.5c0.1-0.7,0.1-1.1,0.1-1.4c0-0.6-0.1-1.1-0.4-1.6
			c-0.3-0.4-0.8-0.7-1.5-0.7c-1.9,0-4.3,1.7-7.2,5.2c-1.7,2.1-3.4,4.5-5.2,7.4c-1.3,2.2-2.3,4.4-3.1,6.5c-0.8,2.1-1.9,5.9-3.6,11.5
			H463.9z"/>
	</g>
	<g>
		<path fill="#FFFFFF" d="M158.6,62.6c-5.4,0-10.4,4-15.1,12c-4.4,7.5-6.6,14.9-6.6,22.1c0,2.9,0.7,5.3,2.2,7.2
			c1.5,1.9,3.6,2.9,6.4,2.9c5.7,0,10.8-4.3,15.2-12.9c3.7-7.4,5.6-14.2,5.6-20.4c0-2.6-0.3-4.7-0.9-6.4
			C164.1,64.1,161.8,62.6,158.6,62.6z"/>
		<path fill="#FFFFFF" d="M102.4,2.7C91.3,2.7,80.7,4,70.7,6.4h63.4C124.1,4,113.5,2.7,102.4,2.7z"/>
		<path fill="#FFFFFF" d="M102.4,150.1c10.4,0,20.5-1.1,30-3.3h-60C81.9,148.9,92,150.1,102.4,150.1z"/>
		<path fill="#FFFFFF" d="M210.2,62.9c-5.4,0-10.5,4.3-15.5,12.9c-4.5,7.7-6.7,14.4-6.7,20c0,2.1,0.5,4,1.5,5.6c1,1.6,2.6,2.4,5,2.4
			c5,0,9.8-4,14.4-12.1c4.5-7.5,6.7-14.7,6.7-21.4c0-2.1-0.4-3.9-1.1-5.3C213.8,63.6,212.4,62.9,210.2,62.9z"/>
		<path fill="#FFFFFF" d="M261.8,62.7c-5.8,0-11.1,4.4-16.1,13.1c-4.3,7.7-6.5,14.3-6.5,19.9c0,2.8,0.6,4.8,1.8,6.1
			c1.2,1.3,2.7,1.9,4.5,1.9c5.3,0,10.4-4.3,15.2-12.8c4.7-7.7,7.1-14.7,7.1-21c0-2.5-0.6-4.4-1.8-5.6
			C264.9,63.3,263.5,62.7,261.8,62.7z"/>
		<path fill="#FFFFFF" d="M270.9,106.6c-2.3,1.7-4.4,2.5-6.5,2.5c-1.3,0-2.4-0.5-3.1-1.4c-0.7-0.9-1.1-2-1.1-3.4
			c0-1.3,0.2-3.1,0.7-5.4c0.5-2.4,0.9-4.3,1.4-5.9c-0.6,1.1-1.7,2.6-3.2,4.6c-1.5,2-3.3,4-5.5,5.9c-2.6,2.3-5,3.9-7.3,4.8
			c-1.8,0.6-3.6,0.9-5.2,0.9c-2.8,0-5.4-1.2-7.7-3.5c-2.3-2.3-3.5-5.6-3.5-9.9c0-7.4,3.3-15,10-23c6.9-8.3,14-12.5,21.3-12.5
			c2.8,0,5,0.7,6.5,2.2c0.8,0.8,1.4,1.8,1.9,3l0.3,0.7l1.2-4c0.1-0.5,0.3-0.8,0.4-0.9c0.1-0.2,0.4-0.3,0.7-0.3l6-0.7
			c0.3,0,0.5,0.1,0.6,0.2c0.1,0.1,0,0.3,0,0.7c-0.1,0.5-0.3,0.8-0.3,1.1c-0.1,0.3-0.2,0.6-0.3,1.1L273,82.3
			c-1.1,4.1-2.1,7.6-2.9,10.6c-1.3,5.4-1.9,8.4-1.9,9.2c0,0.5,0.1,0.8,0.4,1.1c0.3,0.2,0.6,0.3,1,0.3c0.3,0,0.7-0.1,1-0.3
			c0.4-0.2,0.9-0.5,1.4-0.9l0.9-0.7c0.3-0.2,0.6-0.5,1-0.9c0.4-0.3,0.8-0.7,1.3-1.2l4.4-4.3c2.2-6,3.3-12.2,3.3-18.7
			c0-40.7-45.5-73.7-101.5-73.7c-14.4,0-28.2,2.2-40.6,6.1h-79c-3.5,1.1-7,2.4-10.3,3.8h79c-2.3,1-4.5,2-6.7,3.1h-79
			c-3.6,1.8-7.1,3.8-10.4,5.9h79c-1.5,1-3,2-4.4,3.1h-79c-3.1,2.3-5.9,4.6-8.5,7.2h79c-1.1,1-2.1,2-3.1,3.1h-79
			c-2.2,2.4-4.3,4.9-6.1,7.5h79c-1.2,1.6-2.2,3.2-3.2,4.9h-79c-2,3.3-3.6,6.7-4.9,10.2h79c-0.6,1.6-1.1,3.3-1.5,4.9h-79
			c-0.9,3.5-1.5,7-1.7,10.6h79c-0.1,1.1-0.1,2.2-0.1,3.3c0,1.4,0.1,2.7,0.2,4.1H1c0.3,3.5,0.9,6.9,1.8,10.2h79
			c0.5,1.7,1,3.3,1.6,4.9h-79c1.3,3.4,2.8,6.7,4.7,9.8h79c1,1.7,2.1,3.3,3.2,4.9h-79c2,2.7,4.1,5.4,6.5,7.9h79c1,1,2,2.1,3.1,3.1H22
			c2.7,2.5,5.5,4.9,8.6,7.2h79c1.5,1.1,3,2.1,4.5,3.1h-79c3.1,2,6.3,3.8,9.7,5.5h79c2.2,1.1,4.4,2.1,6.7,3.1h-79
			c3.7,1.6,7.6,3,11.6,4.2h78.6c0.1,0,0.1,0,0.2-0.1c12.1,3.7,25.5,5.8,39.5,5.8c44.7,0,82.6-21,96.2-50.1
			C274.9,103.1,272.7,105.3,270.9,106.6z M124.3,72.9c-1,0.9-2.1,1.4-3.5,1.4c-1.3,0-2.4-0.4-3.3-1.2c-0.9-0.8-1.3-1.8-1.3-3
			c0-0.9,0.3-1.9,0.9-2.9c0.6-1,0.9-1.7,0.9-2c0-0.6-0.4-1.2-1.1-1.6c-0.7-0.4-1.9-0.7-3.4-0.7c-5.6,0-10.5,3.2-14.7,9.6
			c-4.1,6.4-6.2,13.1-6.2,20.2c0,4,0.8,7.1,2.5,9.3c1.7,2.2,4.2,3.4,7.6,3.4c2.7,0,5.3-0.8,7.8-2.3c2.5-1.6,4.9-3.5,7-6l0.4-0.4
			l1.5,1.2c-2.4,3.1-4.8,5.5-7.1,7.2c-4,2.9-8.5,4.4-13.4,4.4c-4.7,0-8.5-1.5-11.4-4.5c-2.9-3-4.4-7.1-4.4-12.3
			c0-7.9,3.2-15.3,9.7-21.9c6.4-6.6,13.3-10,20.8-10c4.3,0,7.3,1,9.2,2.9c1.9,1.9,2.8,3.8,2.8,5.6C125.8,70.7,125.3,72,124.3,72.9z
			 M165.4,98c-6.8,7.4-14,11.1-21.6,11.1c-4.8,0-8.7-1.4-11.6-4.2c-2.9-2.8-4.4-6.7-4.4-11.8c0-7.7,3.3-15,9.8-22
			c6.6-7.2,13.8-10.8,21.6-10.8c5.9,0,10,1.6,12.4,4.7c2.4,3.1,3.6,6.8,3.6,11.1C175.2,83.6,171.9,90.9,165.4,98z M227.4,98
			c-1.3,1.9-3,3.9-5,5.9c-3.6,3.5-6.9,5.3-9.8,5.3c-1,0-1.8-0.2-2.6-0.6c-1.4-0.8-2.2-2.3-2.2-4.5c0-0.7,0.1-1.9,0.3-3.5
			c0.2-1.6,0.5-3.4,1-5.3c-2.7,4.1-5.6,7.4-8.7,10c-3.2,2.6-6.6,3.9-10.4,3.9c-3,0-5.7-1.1-8-3.3c-2.3-2.2-3.4-5.5-3.4-10
			c0-7.6,3.5-15.4,10.6-23.5c7-8,13.8-12,20.5-12c2.8,0,4.8,0.7,5.9,2c0.7,0.8,1.2,2.1,1.6,3.9l6.2-21.5c0.2-0.6,0.3-1.1,0.3-1.6
			c0.1-0.5,0.1-0.9,0.1-1.2c0-1.4-0.3-2.2-0.8-2.6c-0.5-0.3-1.2-0.5-2.2-0.5c-0.6,0-1.1,0-1.7,0.1c-0.5,0-1.2,0.1-2,0.2v-1.7
			c4-0.5,9.5-1.4,16.5-2.7l0.5,0.5l-0.1,0.6l-10.4,37.7l-7.1,25c-0.1,0.6-0.3,1.1-0.3,1.6c-0.1,0.5-0.1,0.9-0.1,1.3
			c0,1,0.2,1.6,0.7,1.9c0.5,0.3,0.9,0.4,1.2,0.4c1,0,2.5-0.9,4.4-2.7c1.1-1.1,2.6-2.8,4.5-5.1l1.2,1.2L227.4,98z"/>
	</g>
</g>
</svg>
